<svg width="140" height="142" viewBox="0 0 140 142" fill="none" xmlns="http://www.w3.org/2000/svg">
<g id="paper">
<path d="M29.5001 28.2517V16.2517C34.5001 14.7517 35.4236 12.3148 40.0001 12.7517L47.5001 17.7517C52.8406 26.5374 54.035 31.0103 53.0001 38.2517C55.5896 49.7858 56.9113 53.3553 59.0001 53.7517L61.5001 51.7517V43.2517L59.0001 34.2517C57.9185 30.4604 57.245 25.9189 56.0001 16.2517C57.0787 10.4038 58.7266 7.66267 63.5001 3.75171C67.5108 1.48149 70.0996 1.35161 75.5001 3.75171C80.7707 9.25332 82.1313 11.877 83.5001 16.2517C83.3641 24.2857 82.4488 28.1054 80.0001 34.2517C81.1113 40.9056 80.8915 43.4402 80.0001 47.2517L86.0001 53.7517C89.5001 50.8544 90.4997 47.4914 90.5001 38.2517C89.7334 32.8907 90.1649 28.7099 93.5001 17.7517C95.4886 11.9587 97.6111 9.70386 103 7.25171C109.456 8.25579 112.784 9.37836 118 12.7517L121.5 28.2517L118 47.2517L109.5 67.7517C112.194 62.9917 115.019 62.0459 121.5 62.2517C126.676 64.2603 128.652 65.4879 131.5 67.7517C135.547 72.4538 136.089 75.6082 137 81.2517C134.719 87.6356 133.374 88.2517 126.5 92.7517C119.626 97.2517 112.678 100.488 103 101.752L100.5 108.752L93.5001 117.752V125.752C91.6759 130.771 90.2242 133.304 86.0001 136.752L68.0001 139.752L47.5001 136.752C44 136.752 40.0001 139.752 40.0001 128.752C40.0001 117.752 36.648 122.047 34.5001 117.752L29.5001 108.752C28.4218 101.899 27.758 98.4402 26.5001 92.7517V81.2517L18.5001 71.7517C13.8774 65.7708 13.0707 63.3297 8 59.2517C2.92928 55.1737 4.52572 49.8292 3 43.2517C4.61282 36.2216 7.13431 34.3985 14.0001 34.2517C18.9014 35.5751 21.6369 37.7012 26.5001 43.2517C29.2294 50.8388 30.9755 54.9996 34.5001 62.2517L40.0001 59.2517L34.5001 47.2517C32.5858 42.1848 33.687 37.7383 29.5001 28.2517Z" fill="#F9A669" fill-opacity="0.8"/>
<path d="M93.5001 117.752V125.752C91.6759 130.771 90.2242 133.304 86.0001 136.752C78.9707 137.923 75.0296 138.58 68.0001 139.752L47.5001 136.752C44 136.752 40.0001 139.752 40.0001 128.752C40.0001 117.752 36.648 122.047 34.5001 117.752L29.5001 108.752C28.4218 101.899 27.758 98.4402 26.5001 92.7517V81.2517L18.5001 71.7517C13.8774 65.7708 13.0707 63.3297 8 59.2517C2.92928 55.1737 4.52572 49.8292 3 43.2517C4.61282 36.2216 7.13431 34.3985 14.0001 34.2517C18.9014 35.5751 21.6369 37.7012 26.5001 43.2517C29.2294 50.8388 30.9755 54.9996 34.5001 62.2517L40.0001 59.2517L34.5001 47.2517C32.5858 42.1848 33.687 37.7383 29.5001 28.2517V16.2517C34.5001 14.7517 35.4236 12.3148 40.0001 12.7517L47.5001 17.7517C52.8406 26.5374 54.035 31.0103 53.0001 38.2517C55.5896 49.7858 56.9113 53.3553 59.0001 53.7517L61.5001 51.7517V43.2517L59.0001 34.2517C57.9185 30.4604 57.245 25.9189 56.0001 16.2517C57.0787 10.4038 58.7266 7.66267 63.5001 3.75171C67.5108 1.48149 70.0996 1.35161 75.5001 3.75171C80.7707 9.25332 82.1313 11.877 83.5001 16.2517C83.3641 24.2857 82.4488 28.1054 80.0001 34.2517C81.1113 40.9056 80.8915 43.4402 80.0001 47.2517L86.0001 53.7517C89.5001 50.8544 90.4997 47.4914 90.5001 38.2517C89.7334 32.8907 90.1649 28.7099 93.5001 17.7517C95.4886 11.9587 97.6111 9.70386 103 7.25171C109.456 8.25579 112.784 9.37836 118 12.7517L121.5 28.2517L118 47.2517L109.5 67.7517M93.5001 117.752L100.5 108.752L103 101.752C112.678 100.488 119.626 97.2517 126.5 92.7517C133.374 88.2517 134.719 87.6356 137 81.2517C136.089 75.6082 135.547 72.4538 131.5 67.7517C128.652 65.4879 126.676 64.2603 121.5 62.2517C115.019 62.0459 112.194 62.9917 109.5 67.7517M93.5001 117.752C87.2214 120.399 83.3481 122.108 75.5001 125.752C67.8849 125.886 63.6154 125.904 56.0001 125.752C50.1073 122.336 46.8854 120.44 44 117.752M109.5 67.7517C105.985 70.6806 104.015 72.3228 100.5 75.2517C92.4944 73.6379 80.0001 75.2517 80.0001 75.2517C80.0001 75.2517 71.9712 75.2252 67.5001 78.7517L59.0001 88.2517L56.0001 96.2517" stroke="black" stroke-width="4"/>
</g>
</svg>
