<svg width="125" height="125" viewBox="0 0 125 125" fill="none" xmlns="http://www.w3.org/2000/svg">
<g id="rock">
<path d="M21.722 17.2524C21.722 17.2524 38.9783 7.46391 51.222 4.75242C58.9949 1.63914 63.9054 1.46844 73.222 2.75242C82.2272 3.42197 86.9792 5.27864 95.222 9.75242C101.644 13.0038 104.886 15.616 110.222 21.2524C117.298 28.2682 119.425 32.857 121.222 41.7524C123.53 50.5392 123.353 55.4656 121.222 64.2524C118.192 70.6007 115.524 73.4854 110.222 78.2524V85.2524C109.491 90.5664 107.891 93.2265 104.222 97.7524V104.752L95.222 115.252C87.778 119.77 83.9203 121.332 75.722 122.252C66.1541 123.094 60.7898 123.368 51.222 122.252C40.82 119.104 35.8176 117.026 29.722 112.252C25.1819 107.088 24.7529 105.001 25.222 101.752C20.883 97.7999 18.8044 94.9053 17.222 89.7524L7.72196 82.7524C4.88749 77.9642 3.74992 73.6718 2.22196 64.2524C1.4022 50.8196 2.76979 44.7062 7.72196 35.7524C11.3684 29.7795 15.2971 25.8268 21.722 17.2524Z" fill="#F9A669"/>
<path d="M17.222 89.7524L7.72196 82.7524C4.88749 77.9642 3.74992 73.6718 2.22196 64.2524C1.4022 50.8196 2.76979 44.7062 7.72196 35.7524C11.3684 29.7795 15.2971 25.8268 21.722 17.2524C21.722 17.2524 38.9783 7.46391 51.222 4.75242C58.9949 1.63914 63.9054 1.46844 73.222 2.75242C82.2272 3.42197 86.9792 5.27864 95.222 9.75242C101.644 13.0038 104.886 15.616 110.222 21.2524C117.298 28.2682 119.425 32.857 121.222 41.7524C123.53 50.5392 123.353 55.4656 121.222 64.2524C118.192 70.6007 115.524 73.4854 110.222 78.2524M17.222 89.7524C18.8044 94.9053 20.883 97.7999 25.222 101.752M17.222 89.7524H25.222L32.222 86.7524L35.222 82.7524M25.222 101.752C24.7529 105.001 25.1819 107.088 29.722 112.252C35.8176 117.026 40.82 119.104 51.222 122.252C60.7898 123.368 66.1541 123.094 75.722 122.252C83.9203 121.332 87.778 119.77 95.222 115.252C98.7367 111.152 100.707 108.853 104.222 104.752V97.7524M25.222 101.752C30.4861 104.315 33.3389 105.807 38.222 107.752H47.722M104.222 97.7524C107.891 93.2265 109.491 90.5664 110.222 85.2524V78.2524M104.222 97.7524L95.222 101.752C89.6175 104.946 86.1348 106.078 79.222 106.752C76.3852 106.842 74.4033 106.865 68.722 106.752L64.222 104.752M110.222 78.2524L107.222 69.2524L100.222 61.2524C96.2508 59.9928 94.226 59.6574 90.972 59.7524M35.222 82.7524L41.722 86.7524C48.3745 85.9046 50.7369 85.01 54.722 82.7524M35.222 82.7524C31.2643 79.997 29.7703 77.642 27.722 72.7524C27.7306 68.242 27.2927 65.1952 25.222 58.2524C26.3269 52.3763 26.8783 49.1947 27.722 43.7524M54.722 82.7524L57.222 89.2524L68.722 93.2524H81.722M54.722 82.7524V72.7524L61.7437 64.2524M57.222 31.2524L54.722 43.7524L57.222 58.2524L61.7437 64.2524M61.7437 64.2524L64.222 61.2524C69.7634 59.174 81.722 58.2524 81.722 58.2524L90.972 59.7524M91.222 27.7524L95.222 35.7524V48.2524L90.972 59.7524" stroke="black" stroke-width="4"/>
</g>
</svg>
