<svg width="104" height="139" viewBox="0 0 104 139" fill="none" xmlns="http://www.w3.org/2000/svg">
<g id="scissor">
<path d="M69 8.52194C71.1534 4.9461 73.4099 3.73551 80 3.52194H84C89 3.52194 91.5 8.52194 91.5 8.52194L95.5 20.5219V34.0219L91.5 47.5219L84 65.0219L89 67.0219C92.8846 68.0544 95.5576 70.1051 99 74.0219C101.894 80.9429 102.075 83.584 101.5 87.5219C100.596 93.6065 99.1894 96.7541 95.5 102.022C92.919 107.264 90.312 109.866 84 114.022L86.5 122.522L80 131.022C71.8574 134.503 67.1915 135.615 58.5 134.522C51.5126 136.63 47.4157 137.209 39 134.522C35.0197 134.678 32.6068 134.321 26 128.022V122.522L16 116.022L7.5 105.522C5.04852 99.8235 3.98718 96.0281 3 87.5219L7.5 75.5219C9.11829 71.1261 10.8373 68.8026 16 65.0219C21.4439 62.4773 26 59.0219 26 59.0219V50.0219C23.5527 45.687 22.6304 42.2852 22 34.0219C20.0586 27.3359 20.2511 23.1032 22 15.0219C23.2188 9.0457 25.1612 6.67659 30 3.52194C36.9975 1.57775 40.2874 1.40937 44.5 3.52194C44.5 3.52194 48.5001 3.52194 51.5 8.52194C54.4999 13.5219 55.5 20.5219 55.5 20.5219C55.9879 27.3568 56.6172 31.188 58.5 38.0219C59.2002 30.916 60.0389 27.0466 63 20.5219C63.5122 14.5905 64.611 11.8169 69 8.52194Z" fill="#F9A669"/>
<path d="M58.5 38.0219C59.2002 30.916 60.0389 27.0466 63 20.5219C63.5122 14.5905 64.611 11.8169 69 8.52194C71.1534 4.9461 73.4099 3.73551 80 3.52194C80 3.52194 79 3.52194 84 3.52194C89 3.52194 91.5 8.52194 91.5 8.52194L95.5 20.5219V34.0219L91.5 47.5219L84 65.0219M58.5 38.0219C56.6172 31.188 55.9878 27.3568 55.5 20.5219C55.5 20.5219 54.4999 13.5219 51.5 8.52194C48.5001 3.52194 44.5 3.52194 44.5 3.52194C40.2874 1.40937 36.9975 1.57775 30 3.52194C25.1612 6.67659 23.2188 9.0457 22 15.0219C20.2511 23.1032 20.0586 27.3359 22 34.0219C22.6304 42.2852 23.5527 45.687 26 50.0219V59.0219M58.5 38.0219V50.0219V59.0219M26 59.0219C26 59.0219 21.4439 62.4773 16 65.0219C10.8373 68.8026 9.11829 71.1261 7.5 75.5219L3 87.5219C3.98718 96.0281 5.04852 99.8235 7.5 105.522L16 116.022L26 122.522V128.022C32.6068 134.321 35.0197 134.678 39 134.522C47.4157 137.209 51.5126 136.63 58.5 134.522C67.1915 135.615 71.8574 134.503 80 131.022L86.5 122.522L84 114.022C90.3121 109.866 92.919 107.264 95.5 102.022C99.1894 96.7541 100.596 93.6065 101.5 87.5219C102.075 83.584 101.894 80.9429 99 74.0219C95.5576 70.1051 92.8846 68.0544 89 67.0219L84 65.0219M26 59.0219C26 59.0219 29.4881 58.1718 36.0001 59.0219C42.512 59.8721 45.0614 60.8966 47.0001 64.0219C48.9387 67.1472 53.3182 70.2227 55.5 74.0219M84 65.0219L76.5001 64.0219C72.8861 63.0768 70.5862 63.7373 66 67.0219C66 67.0219 60.5001 69.5219 55.5 74.0219M58.5 59.0219L66 62.0219M58.5 59.0219H51.5M55.5 74.0219C52.2816 78.3427 51.4783 80.3958 51.5 83.5219C49.3144 87.7476 51.5 96.0219 51.5 96.0219M51.5 96.0219C55.7293 98.8665 58.2962 100.087 63 102.022C66.86 103.299 69.8629 103.257 76.5001 102.022L84 96.0219M51.5 96.0219L47.0001 99.5219M47.0001 99.5219L41.5001 93.5219L36.0001 87.5219C33.6797 85.4927 31.9305 84.1799 28.0001 81.5219M47.0001 99.5219L44.5 105.522C40.8639 110.113 39.0683 111.712 36.0001 114.022L27.0001 111.522L22 105.522" stroke="black" stroke-width="4"/>
</g>
</svg>
